<!-- Generator: Adobe Illustrator 19.0.0, SVG Export Plug-In  -->
<svg version="1.1"
	 xmlns="http://www.w3.org/2000/svg" xmlns:xlink="http://www.w3.org/1999/xlink" xmlns:a="http://ns.adobe.com/AdobeSVGViewerExtensions/3.0/"
	 x="0px" y="0px" width="937.5px" height="494px" viewBox="0 0 937.5 494" style="enable-background:new 0 0 937.5 494;"
	 xml:space="preserve">
<style type="text/css">
	.st0{fill:#FFFFFF;}
	.st1{fill:none;stroke:#FFFFFF;stroke-width:15;stroke-linecap:round;stroke-linejoin:round;stroke-miterlimit:10;}
</style>
<defs>
</defs>
<g id="XMLID_34_">
	<path id="XMLID_38_" class="st0" d="M298.1,16.4l-2.1,6.6c-0.8,2.3-1.5,4.4-2.4,6.6c-1.6,4.4-3.4,8.7-5.3,13
		c-1.9,4.3-4,8.5-6.2,12.6c-2.3,4.1-4.7,8.1-7.2,12.1C264.7,83,252,96.9,238,108.8c-14,11.9-29.5,22-45.5,30.6
		c-8.2,4.3-16.4,8.2-24.9,11.7c-4.2,1.7-8.5,3.3-12.9,4.9c-4.3,1.5-8.7,2.9-13.2,4.2c-8.9,2.5-17.9,4.6-27.1,5.9
		c-9.2,1.4-18.6,2.1-28.1,1.9c-9.5-0.2-19.2-1.3-28.7-4c-9.5-2.6-19-6.7-27.5-12.9c-8.5-6.1-15.9-14.4-20.9-23.9
		c-0.7-1.2-1.2-2.4-1.8-3.6c-0.5-1.2-1.1-2.4-1.6-3.7c-0.5-1.2-1-2.5-1.4-3.7l-0.3-0.9l-0.2-0.5l-0.1-0.2l-0.1-0.4l-0.5-1.6L3,111.7
		l-0.3-1l-0.5-2c-0.3-1.3-0.6-2.5-0.8-3.8c-0.5-2.6-0.9-5.2-1.1-7.9c-0.5-5.3-0.4-10.8,0.3-16.2C1.4,75.3,2.8,70,4.8,64.8
		c4-10.3,10.6-19.2,18.3-26.4c7.7-7.1,16.5-12.7,25.9-16.7c4.7-2,9.6-3.6,14.9-4.8c5.3-1.2,11.2-1.4,16.3-1.1
		c10.3,0.6,20,3.1,29.1,6.6c4.6,1.8,9,3.8,13.3,6.1c4.2,2.3,8.4,4.8,12.3,7.5c7.9,5.4,15.1,11.7,21.7,18.4
		c6.6,6.8,12.5,14.1,17.7,21.8c5.2,7.7,9.8,15.8,13.8,24.2c1,2.1,2,4.2,2.9,6.3l1.4,3.2c0.5,1.1,0.9,2.1,1.3,3.2
		c0.8,2.1,1.7,4.2,2.6,6.4l2.4,6.3c3.1,8.5,6.1,17,8.9,25.5c2.8,8.5,5.4,17.1,8,25.7c5.2,17.2,9.9,34.4,14.5,51.7
		c2.3,8.7,4.5,17.3,6.6,26c2.1,8.7,4.3,17.4,6.4,26.1c4.1,17.4,8.1,34.8,11.9,52.4c0.9,4.3-1.8,8.6-6.1,9.5
		c-4.1,0.9-8.2-1.6-9.4-5.6l-0.1-0.3l0,0c-1.7-6.5-3.3-12.9-4.8-19.4c-1.5-6.5-3-12.9-4.4-19.4c-2.8-13-5.3-26-7.5-39.1
		c-2.2-13.1-4-26.3-5.3-39.7c-0.6-6.7-1.1-13.4-1.3-20.1c-0.2-6.8-0.3-13.6,0.1-20.4c0.4-6.9,1.1-13.9,2.8-20.9
		c0.9-3.5,1.9-7.1,3.5-10.7c1.6-3.6,3.7-7.2,6.7-10.5c1.5-1.6,3.3-3.2,5.3-4.5c0.5-0.3,1-0.6,1.5-0.9l0.4-0.2l0.2-0.1l0.4-0.2
		l0.6-0.3c1.4-0.6,2.6-1.1,4-1.4c2.8-0.7,6.2-0.6,9,0.4c2.9,0.9,5.2,2.5,7.1,4.1c3.6,3.3,5.8,6.7,7.6,10.1c1.8,3.4,3.2,6.7,4.4,10.1
		c2.4,6.7,4.2,13.3,5.7,20c1.5,6.6,2.7,13.3,3.7,19.9c1,6.6,1.9,13.3,2.6,19.9c0.7,6.7,1.4,13.2,1.8,20l-16,0.7
		c-0.1-5.5-0.2-10.9-0.2-16.3c0-5.4,0.1-10.8,0.2-16.2c0.3-10.8,0.8-21.6,1.8-32.5c0.5-5.4,1.1-10.9,1.9-16.3
		c0.8-5.5,1.8-10.9,3.1-16.5c1.4-5.5,3-11.1,5.9-16.9c1.5-2.9,3.3-5.9,6.4-8.7c1.5-1.4,3.5-2.8,5.9-3.7c0.6-0.2,1.2-0.4,1.8-0.6
		c0.3-0.1,0.6-0.2,0.9-0.2l0.5-0.1l0.2,0l0.4-0.1l0.5-0.1c0.4,0,0.8-0.1,1.2-0.1c0.7,0,1.3,0,2,0.1c2.6,0.2,5.1,1.2,7.1,2.4
		c2,1.2,3.6,2.6,4.9,4c2.6,2.8,4.2,5.7,5.6,8.5c2.8,5.6,4.5,11.1,6,16.6c1.5,5.5,2.6,10.9,3.6,16.3c1,5.4,1.8,10.8,2.4,16.2
		c1.4,10.8,2.3,21.6,2.9,32.4c0.3,5.4,0.6,10.8,0.7,16.2c0.1,2.7,0.1,5.4,0.2,8.2c0,2.7,0.1,5.4,0,8.3c-0.1,4.4-4,7.9-8.4,7.8
		s-8-3.8-8-8.2v0v0c1-2.4,0.3-5.1,0.3-7.7c0-2.6,0-5.2-0.1-7.9c-0.2-5.3-0.3-10.5-0.7-15.8c-0.6-10.5-1.5-21-2.8-31.4
		c-0.7-5.2-1.4-10.3-2.3-15.4c-0.9-5.1-2-10.1-3.3-15c-1.3-4.8-2.9-9.6-4.8-13.5c-1-2-2.1-3.7-3.1-4.8c-0.5-0.6-1-0.9-1.3-1.1
		c-0.3-0.2-0.4-0.2-0.4-0.2c0,0-0.1,0,0,0c0.1,0,0.1,0,0.2,0l-0.5,0.1l-0.1,0c-0.1,0,0.5-0.1,0.2,0l0,0l0,0c0,0,0,0,0,0
		c0,0,0,0-0.1,0c-0.1,0.1-0.4,0.2-0.9,0.6c-0.9,0.8-2,2.3-2.9,4.2c-1.9,3.8-3.4,8.5-4.6,13.3c-1.2,4.8-2.1,9.9-2.8,15
		c-0.7,5.1-1.3,10.3-1.8,15.5c-0.9,10.4-1.5,20.9-1.8,31.5c-0.1,5.3-0.2,10.5-0.2,15.8c0,5.3,0,10.6,0.2,15.8
		c0.1,4.4-3.4,8.1-7.8,8.2c-4.3,0.1-7.9-3.2-8.2-7.4l0,0c-0.4-6.3-1-12.8-1.7-19.2c-0.7-6.4-1.6-12.8-2.6-19.2
		c-1-6.4-2.1-12.7-3.5-18.9c-1.4-6.2-3-12.3-5.1-18c-1-2.8-2.2-5.6-3.5-8c-1.3-2.4-2.8-4.5-4.1-5.6c-0.6-0.6-1.1-0.8-1.4-0.9
		c-0.2-0.1-0.3-0.1-0.7,0c-0.2,0-0.5,0.2-0.6,0.2l-0.6,0.3c0.1,0-0.2,0.1,0.1-0.1l0,0l-0.1,0l-0.1,0.1c-0.2,0.1-0.4,0.2-0.6,0.3
		c-0.8,0.5-1.5,1.1-2.2,1.9c-1.4,1.5-2.7,3.7-3.8,6.1c-1.1,2.4-1.9,5.2-2.6,8c-1.4,5.7-2.1,11.9-2.4,18.1c-0.7,12.5,0,25.4,1.2,38.2
		c1.2,12.8,3,25.7,5.1,38.5c2.1,12.8,4.6,25.6,7.3,38.4c1.4,6.4,2.8,12.7,4.3,19.1c1.5,6.3,3.1,12.7,4.7,18.9l0,0l-15.6,3.6
		c-1.5-8.7-3.2-17.4-4.9-26.1c-1.7-8.7-3.6-17.4-5.5-26.1c-3.8-17.3-7.9-34.6-12.3-51.8c-2.2-8.6-4.5-17.2-6.9-25.7
		c-2.4-8.5-4.9-17-7.4-25.5c-5.2-16.9-10.8-33.8-17-50.1l-2.4-6.2c-0.8-2-1.7-4-2.5-6c-0.4-1-0.8-2-1.3-3l-1.4-2.9
		c-0.9-1.9-1.8-3.9-2.8-5.8c-3.9-7.7-8.2-15.1-13.1-22c-4.9-6.9-10.3-13.5-16.3-19.3c-1.5-1.4-3-2.9-4.6-4.2l-2.4-2l-2.5-1.9
		c-1.6-1.3-3.3-2.5-5-3.7c-0.8-0.6-1.7-1.1-2.6-1.7c-0.9-0.5-1.7-1.1-2.6-1.6l-2.7-1.5c-0.9-0.5-1.8-0.9-2.7-1.4
		c-1.8-1-3.7-1.8-5.6-2.6c-3.8-1.6-7.6-2.9-11.5-4c-7.7-2.1-15.8-3.1-23.3-2.8c-0.9,0-1.9,0.1-2.8,0.2L76,38.6l-0.6,0.1l-0.8,0.1
		l-0.8,0.1L73.3,39l-0.2,0c0.5-0.1,0.1,0,0.1,0c-0.4,0.1-0.8,0.2-1.2,0.3c-0.8,0.2-1.6,0.4-2.4,0.7c-3.4,1-6.8,2.6-10.2,4.3
		c-6.7,3.5-13,8-18.1,13.2c-5.2,5.2-9.3,11-11.9,17.3c-1.3,3.2-2.2,6.4-2.8,9.8C26.1,88,26,91.5,26.2,95c0.1,1.8,0.2,3.6,0.5,5.4
		c0.1,0.9,0.3,1.8,0.5,2.7l0.3,1.3l0.1,0.6c0,0.2,0.1,0.5,0.2,0.8l0.4,1.6c0,0,0.1,0.3,0,0l0,0.2l0.1,0.3l0.2,0.7
		c0.2,0.9,0.5,1.7,0.8,2.6c0.3,0.9,0.6,1.7,0.9,2.5c0.4,0.8,0.7,1.7,1,2.5c1.5,3.2,3.2,6.3,5.4,9.1c2.1,2.9,4.6,5.5,7.4,7.9
		c5.5,4.8,12.3,8.7,19.8,11.4c7.4,2.8,15.5,4.6,23.7,5.5c8.3,0.9,16.7,0.9,25.2,0.3c8.5-0.7,17-2.1,25.3-4.1
		c16.7-4,33-10.5,48.3-18.4c15.4-8.2,29.9-17.8,42.8-29.3c12.8-11.5,23.9-24.7,32.2-39.5c4.2-7.4,7.6-15.1,10.5-23.1
		c1.4-4,2.6-8,3.7-12.1c0.6-2,1-4.1,1.5-6.2l0.6-3.1l0.6-3.3l0,0c1.1-5.5,6.4-9.2,11.9-8.1s9.2,6.4,8.1,11.9
		C298.3,15.6,298.2,16,298.1,16.4z"/>
</g>
<g id="XMLID_33_">
	<g id="XMLID_59_">
		<path id="XMLID_66_" class="st0" d="M373,215.4c-0.1-6.4-1.8-12.9-3.2-19c-1.9-8.6-4.2-17.1-6.5-25.6c-3.1-11.1-6.3-22.2-9.6-33.2
			c-2.5-8.2-21.9-10-18.6,0.6c3.3,10.7,6.4,21.4,9.3,32.1c2.3,8.4,4.6,16.8,6.5,25.3c1.3,5.4,2.7,10.9,2.7,16.7
			C353.7,221,373.1,225.4,373,215.4L373,215.4z"/>
	</g>
</g>
<g id="XMLID_30_">
	<path id="XMLID_32_" class="st0" d="M417.5,147.1l1-0.7l0.7-0.5c0.5-0.4,1-0.7,1.4-1.1c0.9-0.7,1.5-1.5,2-2.2
		c0.5-0.7,0.7-1.3,0.9-1.9c0.1-0.6,0.2-1.3,0.1-2.2c-0.1-0.9-0.4-1.9-0.8-3c-0.1-0.3-0.2-0.6-0.4-0.8l-0.2-0.4c0.2,0.4,0,0,0,0.1
		l-0.1-0.1l-0.1-0.3l-0.1-0.3c0,0,0-0.1-0.1-0.1c0,0-0.1-0.1-0.1-0.1c-0.1-0.2-0.2-0.4-0.4-0.6c-1.1-1.5-2.9-3.1-5-4.3
		c-4.2-2.4-9.7-3.5-13.8-2.5l-0.4,0.1c-0.3,0.1,0.3-0.1,0.2-0.1l-0.2,0l-0.3,0.1l-0.6,0.2c-0.1,0-0.1,0-0.1,0.1l-0.1,0
		c0,0-0.1,0-0.1,0.1c0,0-0.2,0.1-0.3,0.1c-0.2,0.1-0.4,0.2-0.6,0.3c-0.8,0.4-1.6,1.1-2.4,1.8c-1.6,1.6-3.1,3.7-4.3,6.1
		c-2.5,4.9-4.1,10.7-5,16.6c-0.8,6-0.9,12.1-0.2,18.1c0.7,6,2.1,11.9,4.4,17.2c1.1,2.7,2.5,5.1,4.1,7.4c1.6,2.3,3.4,4.3,5.4,6.1
		c4,3.5,8.8,5.8,14.2,6.7c2.6,0.5,5.1,0.5,7.3,0.1c2.2-0.4,4.2-1.2,6.1-2.5c3.8-2.6,7-7.4,9.6-12.8c2.6-5.4,4.5-11.5,6.2-17.7
		c1.7-6.2,3.2-12.6,4.5-19.1l2-9.8l1-4.9l0.2-1.2l0.2-1.1l0.3-2.3c0.8-6.2,1.1-12.5,1-19c-0.1-6.4-0.5-12.9-1.3-19.4
		c-1.5-12.9-3.9-25.8-7.5-38.3c-1.8-6.2-3.8-12.4-6.2-18.3c-1.2-2.9-2.5-5.8-3.9-8.5c-1.4-2.7-3-5.3-4.7-7.5
		c-0.8-1.1-1.7-2.1-2.6-2.9c-0.9-0.8-1.7-1.4-2.3-1.6c-0.6-0.3-0.8-0.3-1.1-0.2l-0.1,0l0,0c-0.1,0,0.6-0.2,0.2-0.1
		c-0.2,0.1,0.2-0.1,0.5-0.2c0.3-0.1,0.5-0.2,0.6-0.3c0.3-0.2,0.5-0.4,0.8-0.6c0.9-0.8,1-1.3,1.1-1.5c0.1-0.4,0,0,0,0.5
		c-0.1,1,0,2.5,0.2,3.9c0.2,1.5,0.4,3,0.7,4.6c0.5,3.1,1.3,6.3,2.1,9.4c3.2,12.7,7.3,25.4,11.5,38.1c4.2,12.6,8.7,25.3,13.2,37.8
		c4.5,12.6,9.3,25.1,14,37.6c4.8,12.5,9.6,25,14.5,37.5l14.9,37.5l0,0l-15.2,4.9c-3-10.7-5.6-21.6-7.8-32.6
		c-2.2-11-3.9-22.2-4.8-33.5c-0.4-5.7-0.7-11.4-0.6-17.3c0.1-5.8,0.6-11.7,1.8-17.8c0.6-3,1.4-6,2.5-9.1c1.1-3.1,2.5-6.1,4.5-9.1
		c2-3,4.6-5.9,8-8.1c0.8-0.5,1.7-1,2.7-1.5l0.7-0.3l0.4-0.2l0.5-0.2l1-0.4c0.2-0.1,0.3-0.1,0.5-0.2l0.7-0.2c0.5-0.2,1-0.3,1.5-0.4
		c0.9-0.2,1.8-0.5,2.8-0.6c3.8-0.7,8.2-0.4,12.1,1c2,0.7,3.8,1.6,5.4,2.7c1.6,1.1,3.1,2.3,4.4,3.6c2.6,2.6,4.6,5.3,6.3,8.1
		c1.7,2.8,3,5.6,4.2,8.4c2.4,5.6,4,11.3,5.4,16.9c1.4,5.6,2.4,11.2,3.3,16.9c1.7,11.2,2.7,22.4,3.3,33.6c0.6,11.2,0.7,22.3,0.5,33.5
		c-0.1,4.4-3.7,8.1-8.1,8c-4.4-0.1-7.9-4-7.8-8h0v-0.3c0-10.8,0-21.6-0.5-32.4c-0.5-10.8-1.5-21.5-3.1-32c-0.8-5.2-1.8-10.4-3-15.5
		c-1.2-5-2.7-10-4.6-14.5c-1.9-4.5-4.3-8.6-6.9-11.3c-0.7-0.6-1.3-1.2-2-1.6c-0.7-0.4-1.3-0.7-1.9-1c-0.6-0.2-1.3-0.3-2-0.4
		c-0.7-0.1-1.4,0-2.2,0.1c-0.4,0-0.8,0.2-1.2,0.3l-0.5,0.2l-0.3,0.1c-0.1,0-0.3,0.1-0.4,0.2l-1,0.4l-0.1,0c0.4-0.2,0.1,0,0.2-0.1
		l0,0l-0.1,0.1l-0.2,0.1c-0.3,0.2-0.6,0.3-0.9,0.5c-1.2,0.8-2.4,2-3.5,3.6c-2.1,3.2-3.6,7.7-4.6,12.4c-0.9,4.8-1.4,9.9-1.5,15
		c-0.1,5.2,0.1,10.4,0.5,15.7c0.8,10.5,2.5,21.1,4.6,31.7c2.1,10.5,4.7,21,7.5,31.5c1.2,4.3-1.3,8.7-5.6,9.8c-4,1.1-8.2-1.1-9.6-4.9
		l0,0l-13.9-37.7l-13.9-37.9c-4.6-12.6-9.1-25.3-13.5-38c-4.4-12.7-8.8-25.4-12.9-38.3c-4.1-12.9-8.1-25.8-11.5-39.1
		c-0.8-3.3-1.6-6.7-2.3-10.2c-0.3-1.7-0.6-3.5-0.9-5.4c-0.2-1.9-0.4-3.8-0.3-6.1c0-0.6,0.1-1.2,0.2-1.9c0.1-0.7,0.3-1.5,0.6-2.5
		c0.4-1,0.9-2.3,2.4-3.6c0.4-0.3,0.8-0.7,1.3-0.9c0.2-0.1,0.5-0.3,0.9-0.5c0.3-0.2,0.8-0.3,0.7-0.3c-0.2,0.1,0.5-0.2,0.5-0.2
		l0.3-0.1l0.6-0.1c1.5-0.3,3.1-0.4,4.6-0.2c1.5,0.2,2.9,0.6,4.2,1.1c2.5,1,4.4,2.4,6.1,3.9c1.6,1.4,3,3,4.3,4.5
		c2.5,3.1,4.4,6.2,6.2,9.4c1.7,3.2,3.3,6.4,4.7,9.6c2.8,6.5,5,13.1,7,19.7c3.9,13.3,6.6,26.8,8.3,40.5c0.8,6.9,1.4,13.8,1.5,20.8
		c0.2,7-0.1,14-1,21.2c-0.1,0.9-0.2,1.8-0.4,2.7l-0.2,1.4l-0.2,1.3l-0.9,5l-1.9,10c-1.3,6.7-2.7,13.4-4.5,20.1
		c-1.8,6.7-3.9,13.5-7.1,20.2c-1.6,3.4-3.4,6.7-5.7,10c-2.3,3.2-5.2,6.4-8.8,8.9c-3.6,2.6-7.9,4.4-12.3,5.2
		c-4.4,0.8-8.7,0.6-12.7-0.1c-7.8-1.3-15.6-4.9-21.7-10.2c-3.1-2.6-5.7-5.7-8-8.9c-2.2-3.2-4.1-6.6-5.6-10.1
		c-3.1-7-4.8-14.3-5.7-21.6c-0.8-7.3-0.8-14.7,0.2-22c1-7.3,2.9-14.6,6.5-21.7c1.8-3.5,4.1-7,7.3-10.2c1.6-1.6,3.5-3,5.6-4.2
		c0.5-0.3,1.1-0.6,1.6-0.9c0.3-0.1,0.5-0.3,0.9-0.4l1-0.4l0.5-0.2c0.2-0.1,0.4-0.1,0.4-0.2l0.6-0.2l0.3-0.1l0.2,0
		c0,0,0.7-0.2,0.5-0.1l0.8-0.2c4.5-1,8.9-0.9,13.1-0.1c4.2,0.8,8.2,2.2,11.9,4.3c3.7,2.1,7.2,4.9,10.1,8.8c0.4,0.5,0.7,1,1,1.5
		l0.6,0.9l0.3,0.5l0.1,0.3l0.4,0.8l0.3,0.7c0.2,0.5,0.4,1,0.6,1.5c0.8,2,1.5,4.2,1.8,6.7c0.3,2.5,0.3,5.2-0.3,7.8
		c-0.6,2.7-1.7,5.2-3.2,7.3c-1.4,2.1-3,3.8-4.7,5.3c-0.8,0.7-1.7,1.4-2.5,2c-0.4,0.3-0.9,0.6-1.4,1l-1.1,0.7
		c-3.7,2.4-8.7,1.3-11.1-2.4C412.7,154.5,413.7,149.5,417.5,147.1L417.5,147.1L417.5,147.1z"/>
</g>
<g id="XMLID_26_">
	<path id="XMLID_29_" class="st0" d="M543.1,112.5c3.2-1.6,6.5-3.2,9.8-4.6c3.3-1.4,6.6-2.8,10-4c6.8-2.5,13.7-4.7,21-6.2
		c3.7-0.7,7.4-1.3,11.4-1.5c4-0.2,8.2-0.1,13,1.3c2.4,0.7,4.9,1.8,7.2,3.7c1.2,0.9,2.3,2,3.2,3.2c0.9,1.2,1.7,2.6,2.3,3.9
		c0.3,0.7,0.5,1.4,0.7,2l0.2,0.5l0.1,0.4l0.2,0.6c0.2,0.8,0.5,1.9,0.7,2.7c0.4,1.8,0.8,3.6,1.1,5.4c1.3,7.2,2.1,14.3,2.7,21.3
		c0.6,7,1.1,14,1.5,20.8c0.4,6.9,0.9,13.7,1.6,20.3c0.4,3.3,0.8,6.5,1.4,9.5c0.3,1.5,0.7,2.9,1.1,4.1c0.4,1.2,0.9,2.2,1.2,2.6
		l-13.5,8.5c-0.7-1.2-1.2-2.3-1.6-3.3c-0.4-1-0.8-2-1.1-2.9c-0.6-1.8-1.1-3.6-1.7-5.3c-1-3.4-1.9-6.7-2.9-9.8
		c-1-3.2-2.1-6.2-3.3-9.1c-1.2-2.9-2.5-5.6-4.1-8.1c-1.5-2.4-3.2-4.5-5.1-6c-1.9-1.5-3.8-2.5-5.9-3.1c-2.1-0.5-4.6-0.6-7.2-0.2
		c-1.3,0.2-2.6,0.5-4,0.9c-1.4,0.4-2.7,0.9-4.1,1.5l0.8-0.4c-4.9,2.7-8.8,6.4-11.1,11c-2.3,4.6-3.1,10-2.3,15.4
		c0.4,2.7,1.2,5.3,2.3,7.7c1.1,2.4,2.6,4.5,4.2,6.2c0.8,0.8,1.7,1.5,2.5,2c0.1,0.1,0.2,0.1,0.3,0.2l0.2,0.1l0.1,0c0,0,0.2,0.1-0.1,0
		l1.2,0.6l0.6,0.3l0.4,0.2l0.8,0.3c2.6,1,5.2,1.6,8,2c5.6,0.6,11.4-0.1,17.2-1.9c5.8-1.8,11.5-4.4,17-7.7
		c5.5-3.3,10.8-7.1,15.9-11.3c1.3-1,2.5-2.1,3.8-3.2l3.7-3.3c1.2-1.1,2.4-2.2,3.6-3.4l3.6-3.5c9.9-9.8,20.5-19.2,30.8-28.2
		c2.6-2.3,5.1-4.5,7.5-6.8c2.4-2.2,4.7-4.5,6.5-6.7c0.9-1.1,1.7-2.2,2.3-3.2c0.3-0.5,0.6-1,0.7-1.4c0.1-0.2,0.2-0.4,0.3-0.6l0.1-0.2
		l0-0.1c0.1-0.4-0.1,0.5-0.1,0.3l0.1-0.3c0-0.1,0.1-0.3,0-0.1c0,0.1-0.1,0.2-0.1,0.3l0,0.2c0,0,0,0,0,0c0,0,0,0.1,0,0
		c0,0,0-0.1,0-0.2c0-0.3-0.1-0.7-0.3-1.2c-0.3-1-0.8-2.1-1.5-3.3c-1.3-2.4-3-4.7-5-6.9c-2-2.2-4.1-4.2-6.4-6
		c-4.6-3.5-9.8-5.9-14.4-6.1c-2.3-0.1-4.4,0.3-6.5,1.2c-2,0.9-4,2.3-5.8,4.2c-0.2,0.2-0.5,0.5-0.7,0.7L659,109l-0.2,0.2
		c-0.1,0.1,0.2-0.2,0,0l-0.1,0.1l-0.2,0.3c-0.1,0.1-0.2,0.2-0.1,0.2c0,0.1-0.1,0.1-0.1,0.1c-0.1,0.2-0.3,0.4-0.4,0.6
		c-0.5,0.9-1,1.9-1.4,3.1c-0.8,2.4-1.3,5.3-1.6,8.2c-0.5,6,0,12.4,1,18.7c1,6.3,2.6,12.7,4.6,18.8c2,6.2,4.5,12.2,7.5,17.8
		c3,5.6,6.4,10.9,10.5,15.3c4,4.4,8.6,7.7,13.2,8.8c2.3,0.6,4.5,0.6,6.7,0.1c2.3-0.5,4.6-1.4,6.8-2.9c2.3-1.4,4.5-3.3,6.6-5.4
		c0.3-0.3,0.5-0.5,0.8-0.8l0.4-0.4l0.2-0.2l0.1-0.1c0,0,0.2-0.2,0,0.1l0.8-1l0.4-0.5l0.2-0.2l0.1-0.2l0.6-0.8
		c0.2-0.2,0.4-0.5,0.6-0.8c0.4-0.6,0.9-1.2,1.2-1.8c3.2-4.9,5.6-10.7,7.5-16.8c3.7-12.2,5.4-25.5,6.2-38.8
		c0.7-13.4,0.5-26.9-0.3-40.4c-0.8-13.5-2.3-27-4.2-40.5c-2-13.4-4.4-26.9-7.5-39.9l0,0l15.8-1.9c0,5.3,0.1,10.8,0.4,16.2
		c0.2,5.4,0.5,10.9,0.8,16.3c0.7,10.9,1.6,21.7,2.9,32.5c2.4,21.6,5.9,43.1,11,64.1c2.5,10.5,5.5,20.9,9,31
		c3.5,10.1,7.5,20,12.4,29.4c4.8,9.3,10.5,18.2,17.3,25.7l2.6,2.8l2.6,2.5l1.5,1.4l0.8,0.7l0.4,0.3l0.3,0.3c0.9,0.7,1.8,1.5,2.8,2.2
		c3.9,3,8.1,5.4,12.4,7.2c8.7,3.6,18.2,4.3,27.5,2.4c9.3-2,18.4-6.4,26.7-12.2c4.2-2.9,8.1-6.1,11.9-9.6c3.8-3.5,7.4-7.2,10.7-11.2
		c6.7-7.9,12.8-16.4,17.7-25.5c5-9,9.1-18.6,11.3-28.1c0.6-2.4,1-4.7,1.2-7.1c0.1-0.6,0.1-1.2,0.2-1.7l0.1-0.9l0-0.9
		c0-0.7,0.1-1.4,0.1-2l0-1.8c0.1-5-0.3-10.1-0.9-15.1c-0.6-5-1.7-10-3-14.9c-1.4-4.9-3.1-9.6-5.1-14.2c-4.1-9.2-9.7-17.7-16.8-24.6
		c-3.5-3.4-7.4-6.5-11.6-9c-4.2-2.5-8.7-4.4-13.4-5.7c-4.7-1.3-9.6-1.9-14.5-1.9c-4.9,0-9.9,0.6-14.8,1.7c-1.2,0.3-2.4,0.6-3.7,0.9
		l-0.9,0.3l-0.5,0.1c0,0-0.3,0.1-0.1,0l-0.2,0.1l-2,0.6c-1.2,0.4-2.3,0.8-3.5,1.2c-1.2,0.4-2.3,0.9-3.4,1.4
		c-4.5,2.1-8.6,4.6-12.1,7.7C805.4,77,801,85.5,799.7,95c-1.4,9.5,0,19.7,3,29.4c1.5,4.9,3.4,9.7,5.6,14.3c1.1,2.3,2.3,4.6,3.6,6.8
		c0.6,1.1,1.3,2.2,2,3.2c0.7,1,1.4,2.2,2.1,3.1c0.8,1.1,1.6,2.3,2.4,3.3c0.8,1,1.5,2,2.4,3c1.7,2.1,3.4,4.1,5.1,6.1
		c3.5,4,7.2,8,10.9,11.9c7.5,7.9,15.3,15.6,23,23.6c7.7,7.9,15.4,16,22.8,24.6c7.3,8.6,14.4,17.6,20.5,27.6c3,5,5.8,10.2,8.1,15.8
		l0.9,2.1l0.2,0.5c0.1,0.1,0,0.1,0.1,0.4l0.1,0.2l0.4,1c0.6,1.7,1,3.1,1.4,4.6c0.8,2.9,1.4,5.8,2,8.7c2.2,11.4,3.3,22.8,3.8,34.1
		c0.5,11.3,0.4,22.7-0.3,34c-0.7,11.3-2,22.7-4.1,34c-2.1,11.3-5,22.5-8.8,33.5c-3.9,11-8.8,21.8-15.1,32l0,0
		c-3.3,5.4-10.4,7.1-15.8,3.8c-5.4-3.3-7.1-10.4-3.8-15.8c0.1-0.2,0.2-0.4,0.3-0.5c5.7-8.2,10.4-17.4,14.3-27
		c3.9-9.6,6.8-19.7,9.1-30c4.5-20.6,6.4-42.1,6-63.4c-0.2-10.6-1.1-21.3-2.8-31.5c-0.4-2.5-1-5-1.5-7.4c-0.3-1.2-0.6-2.4-0.9-3.3
		l-0.3-1l-0.1-0.2c0.1,0.2,0-0.1,0-0.1l-0.2-0.4l-0.7-1.7c-1.8-4.6-4.1-9.2-6.7-13.6c-5.2-8.9-11.6-17.4-18.5-25.7
		c-6.9-8.2-14.2-16.2-21.7-24.2c-7.5-7.9-15.2-15.8-22.8-24c-3.8-4.1-7.5-8.2-11.2-12.6c-1.8-2.2-3.6-4.4-5.4-6.6
		c-0.9-1.1-1.8-2.3-2.7-3.5c-0.9-1.2-1.6-2.3-2.5-3.4c-1.8-2.5-3.3-5-4.8-7.6c-1.5-2.6-2.9-5.2-4.1-7.8c-2.5-5.3-4.7-10.8-6.4-16.5
		c-1.7-5.7-2.9-11.5-3.5-17.5c-0.6-6-0.6-12.1,0.3-18.3c0.9-6.1,2.8-12.3,5.8-18c3-5.7,7.1-10.8,11.8-14.9c4.8-4.2,10.1-7.4,15.7-10
		c1.4-0.6,2.8-1.2,4.2-1.8c1.4-0.6,3-1.1,4.3-1.6l2-0.6l0.6-0.2l0.5-0.2l1.1-0.3c1.4-0.4,2.9-0.7,4.3-1.1
		c11.7-2.7,24.2-2.9,36.2,0.2c12,3,23,9.3,32,17.4c9,8.1,16.2,18,21.6,28.7c2.7,5.3,4.9,10.9,6.7,16.5c1.8,5.7,3.1,11.5,4,17.4
		c0.9,5.9,1.3,11.8,1.3,17.8l0,2.3c0,0.8,0,1.4-0.1,2.1l0,1.2l-0.1,1.2c-0.1,0.8-0.1,1.6-0.2,2.4c-0.3,3.2-0.9,6.2-1.6,9.2
		c-0.7,3-1.5,5.9-2.4,8.7c-0.9,2.9-2,5.6-3.1,8.4c-1.1,2.7-2.3,5.4-3.6,8.1c-1.3,2.6-2.6,5.2-4.1,7.8c-2.9,5.1-6,10-9.4,14.8
		c-3.4,4.8-7,9.3-10.9,13.7c-3.9,4.4-8,8.5-12.4,12.4c-4.4,3.9-9,7.6-13.9,10.9c-9.8,6.7-21,12-33.3,14.4
		c-6.1,1.1-12.5,1.5-18.9,0.8c-6.3-0.6-12.5-2.3-18.3-4.8c-5.8-2.5-11.1-5.8-15.9-9.6c-1.2-0.9-2.4-2-3.6-3l-0.4-0.4l-0.4-0.4
		l-0.8-0.7l-1.5-1.4l-0.3-0.3L782,240l-0.4-0.4l-0.8-0.8l-1.6-1.6l-3-3.3c-7.8-9-14-18.9-19.2-29.1c-10.3-20.5-17.1-42.1-22.4-63.9
		c-2.6-10.9-4.8-21.9-6.6-32.9c-1.9-11-3.5-22-4.7-33.1c-1.3-11.1-2.3-22.1-3.1-33.2c-0.4-5.5-0.7-11.1-1-16.7
		c-0.3-5.6-0.5-11.1-0.6-16.8c-0.1-4.4,3.4-8,7.9-8.1c3.8-0.1,7,2.5,7.9,6l0,0.1l0,0c3.3,13.8,5.8,27.5,7.8,41.4
		c2,13.9,3.5,27.8,4.4,41.8c0.9,14,1.1,28.1,0.4,42.3c-0.4,7.1-1.1,14.2-2.1,21.3c-1.1,7.1-2.5,14.3-4.7,21.4
		c-2.2,7.1-5.1,14.2-9.4,20.8c-0.5,0.8-1.1,1.6-1.7,2.5c-0.3,0.4-0.6,0.8-0.9,1.3l-1,1.3l-0.3,0.3l-0.2,0.2l-0.4,0.5l-0.8,1
		l-1.1,1.2c-0.3,0.4-0.7,0.7-1,1c-2.8,2.8-5.8,5.4-9.4,7.6c-3.5,2.2-7.6,4.1-12.2,5c-4.5,0.9-9.4,0.8-13.8-0.3
		c-4.5-1.1-8.5-3.1-11.9-5.5c-3.5-2.4-6.5-5.1-9.1-8c-5.3-5.8-9.4-12.2-12.9-18.7c-3.4-6.6-6.2-13.4-8.5-20.3
		c-2.3-6.9-4-14-5.2-21.3c-1.1-7.3-1.7-14.7-1.1-22.5c0.3-3.9,1-7.9,2.4-12c0.7-2.1,1.6-4.2,2.9-6.3c0.3-0.5,0.6-1,1-1.6l0.7-0.9
		l0.5-0.6l0.3-0.4l0.3-0.3l0.5-0.6c0.3-0.4,0.7-0.8,1.1-1.2c2.9-3.1,6.6-5.8,10.9-7.7c4.3-1.9,9.1-2.7,13.7-2.5
		c4.6,0.2,8.9,1.4,12.8,3.1c3.9,1.7,7.4,3.8,10.6,6.2c3.2,2.4,6.1,5.1,8.7,8.1c2.6,3,5,6.2,7.1,9.9c1,1.9,1.9,3.8,2.7,6.2
		c0.4,1.2,0.7,2.4,0.9,3.9c0.1,0.7,0.2,1.5,0.2,2.3c0,0.4,0,0.9,0,1.3l0,0.4l-0.1,0.5c0,0.3-0.1,0.6-0.2,1c-0.1,0.4-0.1,0.4-0.1,0.5
		l-0.1,0.3c0-0.1-0.3,0.9-0.2,0.6l-0.1,0.2l-0.2,0.5c-0.2,0.6-0.5,1.2-0.7,1.8c-0.5,1.1-1.1,2.2-1.7,3.2c-1.2,2-2.5,3.6-3.8,5.2
		c-2.6,3.1-5.3,5.6-7.9,8.1c-2.6,2.5-5.3,4.8-7.9,7.1c-10.4,9.1-20.5,18.1-30.2,27.6l-3.8,3.7c-1.3,1.2-2.6,2.4-3.9,3.7
		c-1.3,1.2-2.7,2.4-4,3.6c-1.4,1.2-2.7,2.3-4.1,3.5c-5.6,4.6-11.5,8.9-17.8,12.6c-6.3,3.8-13.2,7.1-20.6,9.3
		c-7.4,2.2-15.5,3.4-23.6,2.5c-4.1-0.5-8.1-1.5-12-2.9l-1.6-0.6l-0.8-0.3l-0.6-0.3l-1.2-0.6l-0.4-0.2l-0.2-0.1l-0.4-0.2
		c-0.3-0.1-0.5-0.3-0.8-0.5c-2.1-1.3-4-2.8-5.6-4.4c-3.3-3.2-5.7-6.9-7.4-10.8c-1.8-3.9-3-7.9-3.6-12.1c-1.2-8.3,0-17.1,3.9-24.9
		c2-3.9,4.6-7.4,7.6-10.4c3-3,6.5-5.5,10.1-7.4l0.1,0c0.2-0.1,0.5-0.2,0.7-0.3c1.8-0.7,3.7-1.4,5.7-2c2-0.6,4-1.1,6.1-1.4
		c2.1-0.3,4.3-0.5,6.6-0.5c2.3,0.1,4.6,0.3,6.9,0.9c4.6,1.1,8.9,3.4,12.4,6.3c3.5,2.9,6.2,6.3,8.3,9.8c2.2,3.4,3.9,7,5.3,10.5
		c1.5,3.5,2.7,7,3.7,10.5c1.1,3.4,2,6.9,3,10.1c0.5,1.6,1,3.2,1.4,4.6c0.2,0.7,0.5,1.4,0.7,2c0.2,0.6,0.5,1.1,0.6,1.4l0,0
		c2.2,3.8,0.9,8.7-2.9,10.9c-3.7,2.1-8.3,1-10.6-2.4c-1.7-2.5-2.5-4.7-3.2-6.7c-0.7-2.1-1.2-4-1.5-5.9c-0.8-3.8-1.3-7.4-1.7-11
		c-0.8-7.1-1.2-14.1-1.7-21c-0.4-6.9-0.9-13.7-1.5-20.4c-0.6-6.7-1.4-13.4-2.5-19.8c-0.3-1.6-0.6-3.2-1-4.7
		c-0.2-0.8-0.3-1.4-0.6-2.3l-0.2-0.6l0-0.2l0-0.1c0,0.1,0,0,0,0l0-0.1c0-0.2-0.1-0.3-0.1-0.4c-0.2-0.4-0.4-0.7-0.7-1
		c-0.4-0.3-1-0.7-2-0.9c-1.9-0.6-4.6-0.8-7.5-0.6c-2.9,0.1-6,0.6-9,1.2c-6.2,1.3-12.5,3.2-18.6,5.5c-3.1,1.1-6.2,2.4-9.2,3.7
		c-3,1.3-6,2.7-9,4.2c-3.9,2-8.8,0.4-10.8-3.5C537.5,119.3,539.1,114.5,543.1,112.5L543.1,112.5z"/>
</g>
<g id="XMLID_22_">
	<path id="XMLID_25_" class="st0" d="M384.8,276.5c-9.4,2-18.7,3.5-28.1,4.8c-9.3,1.3-18.6,2.5-28,3.6c-18.6,2.2-37.3,4.2-55.9,6.2
		l-55.8,5.8c-9.3,1-18.6,2-27.8,3c-9.2,1.1-18.5,2.2-27.6,3.4c-4.6,0.6-9.1,1.3-13.5,2.1c-2.2,0.4-4.4,0.8-6.3,1.3
		c-1,0.2-1.9,0.5-2.6,0.7c-0.3,0.1-0.6,0.2-0.6,0.2c0,0,0.1,0,0.6-0.3c0.2-0.2,0.5-0.4,1-0.9c0.5-0.5,1.2-1.3,1.8-3
		c0.3-0.8,0.5-1.9,0.4-2.9c0-1.1-0.3-2.1-0.6-2.8c-0.1-0.4-1.1-2-0.9-1.6l0.1,0.2l0.5,0.7l0.5,0.7c0.2,0.2,0.3,0.5,0.5,0.6l0.9,1.1
		c0.3,0.4,0.6,0.7,1,1.2l2.2,2.5l2.3,2.6c3,3.4,6.2,6.8,9.3,10.2c12.6,13.5,25.7,26.8,38.9,40c13.2,13.2,26.5,26.3,39.8,39.3
		c13.4,13,26.9,25.8,40.5,38.4c6.8,6.3,13.7,12.5,20.7,18.5c1.7,1.5,3.5,3,5.2,4.4l1.3,1.1l0.2,0.1c-0.1-0.1,0.5,0.4-0.3-0.2
		c-0.1-0.1,0.4,0.3-0.1-0.1c-0.3-0.3-0.9-0.6-1.1-0.6c-0.9-0.5-1.7-0.6-2.2-0.7c-1-0.1-1.3,0-1.4,0c-0.1,0,0.1,0,0.3-0.1
		c0.5-0.1,1.2-0.4,2-0.7c0.8-0.3,1.6-0.7,2.5-1.2c1.8-0.9,3.6-1.9,5.4-3c7.3-4.4,14.7-9.7,21.5-15.4c6.9-5.7,13.5-11.8,18.8-18.5
		c1.3-1.7,2.6-3.4,3.7-5c0.6-0.8,1.1-1.7,1.6-2.5c0.2-0.4,0.5-0.8,0.7-1.3l0.3-0.6l0.4-0.8l0.8-1.6l0.7-1.5c0.5-1,0.9-2,1.4-3
		c0.9-2,1.8-4.1,2.6-6.1c3.2-8.2,5.8-16.7,6.4-24.7c0.3-4,0-7.8-1-10.7c-0.2-0.7-0.5-1.4-0.9-1.9c-0.1-0.2-0.2-0.3-0.2-0.4l-0.1-0.2
		c-0.2-0.2,0.1,0.2,0.1,0.1l-0.1-0.2l-0.5-0.7c-0.1-0.1-0.2-0.3-0.2-0.3l-0.1-0.2l-0.3-0.3c-0.1-0.1-0.3-0.3-0.4-0.4
		c-0.3-0.3-0.5-0.5-0.8-0.8c-0.6-0.5-1.1-1-1.8-1.4c-2.5-1.6-5.5-2.4-8.5-2.1c-3,0.2-6,1.5-8.4,3.4c-1.2,1-2.3,2.2-3.2,3.5
		c-0.5,0.6-1.1,2.3-1.6,4.1c-0.9,3.6-1.4,7.8-1.4,12c-0.1,8.3,1.5,16.7,4.6,24.2c3.2,7.5,8.1,13.9,14.5,18.7
		c3.2,2.4,6.7,4.4,10.5,5.9c1.9,0.8,3.8,1.5,5.8,2l0.4,0.1c0.2,0.1,0,0,0.1,0l0.2,0.1l0.8,0.2c0.6,0.1,1.2,0.3,1.6,0.4l1.4,0.3
		l1.5,0.3c3.9,0.6,7.8,0.7,11.3,0.1c3.5-0.6,6.7-2,9.4-4c5.4-4,8.9-11.1,9.9-18.8c1.1-7.8,0-16.2-2.7-23.9
		c-2.7-7.8-7.1-15.1-12.6-21.3c-2.9-3.3-2.6-8.3,0.7-11.3c0.9-0.8,1.8-1.3,2.9-1.6l0,0l0,0c10.2-3.2,20.2-5.5,29.4-8.6
		c4.6-1.5,9-3.3,13-5.4c2-1.1,4-2.2,5.8-3.5c0.9-0.6,1.8-1.3,2.7-2l1.3-1l1.2-1.1l0.1,0c3.3-2.9,8.4-2.6,11.3,0.8
		c2.4,2.8,2.6,6.7,0.7,9.6l0,0c-4.5,7.7-8.2,16.4-10.9,25.1c-2.7,8.7-4.3,17.8-4.1,26.1c0.2,4.1,0.9,8.1,2.2,11.4
		c1.3,3.4,3.3,6.1,5.8,8.3c0.7,0.5,1.3,1.1,2.1,1.5c0.4,0.2,0.7,0.5,1.1,0.7l0.3,0.2l0.1,0.1c0.1,0-0.6-0.3-0.2-0.1l0.1,0.1l0.8,0.4
		c0.7,0.4,0.7,0.3,1,0.4l0.1,0.1l0.2,0.1l0.5,0.2c0.3,0.1,0.7,0.2,1,0.3l1,0.2c1.4,0.2,3,0.1,4.7-0.2c1.7-0.3,3.5-0.9,5.4-1.6
		c3.7-1.6,7.4-3.9,11-6.7c3.6-2.8,6.9-6,10.1-9.4c6.3-6.9,11.9-14.8,16.7-23c4.8-8.2,9-16.9,12.1-25.5c0.8-2.1,1.4-4.2,1.9-6.2
		c0.2-0.9,0.4-1.9,0.4-2.5l0-0.4c0-0.1,0-0.2,0-0.2c0,0,0,0,0,0l0,0c0-0.2,0.1,0.3,0,0.2l0-0.2l-0.1-0.5c0-0.1,0-0.2,0-0.2l0,0
		c0-0.1-0.1-0.4-0.2-0.7c-0.1-0.3-0.2-0.6-0.4-0.9c-0.3-0.6-0.7-1.2-1.1-1.8c-0.9-1.2-2.1-2.2-3.4-3.1c-2.7-1.7-6.1-2.6-9.3-2.4
		c-3.2,0.2-6.2,1.4-8.9,3.7c-2.7,2.2-5,5.4-6.8,9c-1.8,3.7-3.1,7.8-4,12.2c-0.2,1.1-0.4,2.2-0.6,3.3l-0.3,1.5l-0.2,1.8
		c-0.1,1.2-0.2,2-0.3,3.2c-0.1,1.1-0.1,2.1-0.1,3.2c0,4.3,0.5,8.4,1.6,12.3c1.1,3.9,2.8,7.5,5.2,10.8c2.3,3.2,5.2,6.1,8.6,8.4
		c3.3,2.3,7.1,4.1,11,5.3c3.9,1.2,8,1.8,11.7,1.6c1.8-0.1,3.6-0.4,4.8-0.9c0.6-0.2,1.2-0.5,1.5-0.8c0.1-0.1,0.1-0.1,0.2-0.2
		c0,0,0.1-0.1,0.1-0.1l0,0l0,0c0,0,0.1-0.1-0.1,0.1l1.3-1.3l0.9-1l1-1.2l0.9-1.2l0.9-1.3c1.1-1.7,2.2-3.5,3.1-5.4
		c3.7-7.6,5.4-16.5,6.1-25.7c0.7-9.2,0.3-18.8-0.5-28.3l16-1.4v0l0.1,1.7l0.2,1.8c0.2,1.2,0.3,2.4,0.5,3.6c0.4,2.4,0.8,4.8,1.3,7.2
		c1,4.8,2.3,9.5,3.8,14c1.6,4.5,3.4,8.8,5.7,12.7c2.3,3.9,4.9,7.3,7.9,9.7c1.5,1.2,3.1,2.2,4.7,2.9c0.8,0.4,1.7,0.6,2.5,0.9
		c0.4,0.1,0.9,0.2,1.3,0.3l0.7,0.1l0.8,0.1c1.9,0.2,3.9,0.2,5.5-0.1c1.7-0.3,3.1-0.8,4.3-1.5c1.2-0.8,2.3-1.8,3.2-3.1
		c0.9-1.4,1.7-3,2.4-4.9c1.3-3.8,1.8-8.3,1.8-12.8c0-2.3-0.1-4.6-0.4-6.8c-0.1-1.1-0.3-2.2-0.5-3.1c-0.2-0.8-0.4-1.6-0.8-2.7
		c-1.6-4.4-3.6-8.9-5.8-13.2c-2.2-4.3-4.7-8.4-7.5-12.1c-2.7-3.7-5.8-7-9-9.3c-1.6-1.1-3.2-2-4.7-2.5c-1.5-0.5-2.9-0.6-4.3-0.5
		c-0.8,0.1-1.3,0.2-2.4,0.5c-0.3,0.1-0.8,0.3-1.2,0.4c-0.4,0.2-0.8,0.3-1.2,0.5c-1.5,0.7-2.8,1.7-3.9,2.9c-2.2,2.3-3.8,5.8-4.5,9.8
		c-0.4,2-0.6,4.1-0.6,6.3c0,1.1,0,2.2,0.1,3.3c0,0.5,0.1,1.1,0.1,1.6l0.1,0.8l0.1,0.6l0.1,0.4c0.6,4.4-2.4,8.4-6.8,9
		c-4.3,0.6-8.3-2.4-9-6.7l-0.1-0.7l-0.1-0.6l-0.1-1.2c-0.1-0.8-0.1-1.5-0.2-2.3c-0.1-1.5-0.1-3-0.1-4.5c0-3,0.3-6,0.9-9.1
		c0.6-3.1,1.5-6.2,2.9-9.2c1.4-3,3.3-6,5.8-8.6c2.4-2.6,5.4-4.7,8.6-6.2c0.8-0.4,1.6-0.7,2.4-1c0.8-0.3,1.6-0.6,2.5-0.9
		c1.3-0.4,3.3-0.9,5.1-1.1c3.7-0.4,7.6,0,11,1.2c3.4,1.1,6.4,2.8,9,4.6c5.2,3.8,9.2,8.2,12.6,12.8c3.4,4.6,6.3,9.4,8.8,14.3
		c2.5,4.9,4.8,9.8,6.7,15.2c0.5,1.3,1,3,1.4,4.7c0.3,1.6,0.6,3.1,0.7,4.5c0.4,2.9,0.5,5.8,0.5,8.7c0,5.8-0.6,11.7-2.6,17.8
		c-1,3-2.4,6.1-4.4,9c-2,2.9-4.7,5.6-7.9,7.6c-3.2,2-6.8,3.2-10.2,3.7c-1.7,0.3-3.4,0.4-5.1,0.4c-0.8,0-1.6,0-2.5-0.1L596,402
		l-0.7-0.1l-0.5-0.1l-1.1-0.1l-1.3-0.2c-0.8-0.1-1.7-0.3-2.5-0.5c-1.6-0.4-3.3-1-4.8-1.6c-3.1-1.3-6-3.1-8.5-5.2
		c-5.1-4.1-8.8-9.1-11.7-14.1c-2.9-5.1-5.2-10.3-7-15.6c-1.8-5.3-3.2-10.6-4.3-15.9c-0.6-2.7-1-5.4-1.5-8c-0.2-1.3-0.4-2.7-0.6-4.1
		l-0.2-2.1l-0.2-2.2v0c0-4.4,2.9-8.3,7.3-8.6c4.4-0.4,8.2,2.9,8.6,7.2l0,0c1,10.1,1.5,20.4,0.8,31c-0.4,5.3-1,10.6-2.2,15.9
		c-1.2,5.3-2.9,10.7-5.3,15.8c-1.2,2.6-2.6,5.1-4.3,7.5l-1.3,1.8l-1.3,1.7l-1.4,1.7l-1.6,1.7l-1.3,1.3c-0.3,0.3-0.2,0.2-0.3,0.2
		l-0.2,0.1l-0.3,0.3c-0.2,0.2-0.4,0.4-0.6,0.5c-0.4,0.3-0.8,0.7-1.3,1c-1.7,1.2-3.4,2-5.1,2.7c-3.4,1.3-6.6,1.8-9.7,2
		c-6.2,0.4-12-0.6-17.6-2.2c-5.5-1.7-10.8-4.2-15.6-7.6c-4.8-3.3-9.1-7.5-12.6-12.3c-3.5-4.8-6.1-10.2-7.7-15.9
		c-1.6-5.6-2.3-11.4-2.2-17c0-1.4,0.1-2.8,0.2-4.2c0.1-1.3,0.3-2.9,0.4-4.2l0.3-1.8l0.3-2.1c0.2-1.3,0.5-2.7,0.8-4
		c1.2-5.3,2.8-10.7,5.4-15.9c2.6-5.2,6.1-10.3,11.1-14.4c2.5-2,5.3-3.8,8.4-5c3.1-1.2,6.4-2,9.8-2.2c6.7-0.4,13.4,1.4,19,5
		c2.8,1.8,5.4,4.1,7.5,6.9c1.1,1.4,2,2.9,2.8,4.5c0.4,0.8,0.8,1.7,1.1,2.5c0.3,0.9,0.6,1.7,0.8,2.9l0.1,0.4l0,0.3l0.1,0.5l0,0.2
		c0,0,0.1,0.6,0.1,0.4l0,0.2l0.1,1c0,0.6,0,1.1,0,1.7c0,0.5-0.1,1-0.1,1.4c-0.2,1.8-0.5,3.3-0.9,4.8c-0.7,2.9-1.6,5.4-2.6,8
		c-2,5-4.3,9.6-6.8,14.2c-2.5,4.5-5.1,8.9-7.9,13.2c-5.6,8.6-11.6,16.9-18.3,24.8c-1.7,2-3.4,3.9-5.3,5.9c-1.8,1.9-3.7,3.8-5.7,5.6
		c-4,3.6-8.3,7.1-13.5,10c-2.6,1.4-5.4,2.6-8.5,3.5c-3.1,0.9-6.5,1.4-10,1.2c-0.9-0.1-1.8-0.1-2.6-0.3c-0.9-0.2-1.8-0.3-2.6-0.5
		l-1.3-0.3l-0.6-0.2l-0.7-0.3c-0.9-0.3-2.1-0.8-2.5-1l-0.8-0.4l-0.1,0l-0.4-0.2l-0.3-0.1l-0.5-0.3c-0.7-0.4-1.4-0.8-2.1-1.2
		c-1.4-0.8-2.7-1.8-3.9-2.8c-5.1-4.1-9-9.7-11.3-15.6c-2.3-5.9-3.2-11.9-3.4-17.6c-0.2-5.7,0.4-11.3,1.4-16.6
		c1-5.4,2.4-10.5,4.2-15.6c1.7-5,3.8-9.9,6.1-14.6c2.4-4.7,5-9.3,8.2-13.8l0,0l12,10.3l-1.7,1.5l-1.7,1.4c-1.2,0.9-2.3,1.8-3.5,2.6
		c-2.4,1.6-4.9,3.1-7.4,4.4c-5.1,2.6-10.3,4.7-15.4,6.4c-5.1,1.7-10.2,3.1-15.2,4.5c-5,1.4-9.8,2.7-14.5,4.2l0,0l3.6-12.9
		c6.8,7.8,12.2,16.9,15.6,26.7c1.7,4.9,2.9,10.1,3.5,15.3c0.6,5.2,0.6,10.6-0.1,16c-0.8,5.4-2.3,10.8-4.9,15.8
		c-2.6,5.1-6.4,9.8-11.1,13.4c-4.8,3.6-10.5,5.9-16.1,6.9c-5.7,1-11.3,0.8-16.6-0.1l-2-0.4c-0.7-0.1-1.4-0.3-2-0.5
		c-0.7-0.2-1.3-0.3-1.8-0.5l-0.8-0.2l-0.6-0.2l-0.5-0.1c-2.5-0.7-5-1.6-7.4-2.6c-4.9-2-9.6-4.6-13.9-7.8c-4.3-3.2-8.2-7-11.5-11.3
		c-3.3-4.3-6-8.9-8.1-13.8c-4.1-9.8-6-20.1-5.9-30.5c0.1-5.2,0.6-10.4,1.9-15.8c0.4-1.4,0.8-2.7,1.4-4.2c0.3-0.7,0.6-1.5,1-2.3
		l0.4-0.7c0.1-0.2,0.3-0.5,0.3-0.6l0.2-0.4c0.3-0.5,0.2-0.3,0.3-0.4l0.2-0.2c1.7-2.5,3.8-4.9,6.2-6.9c4.8-4,10.9-6.5,17.2-6.9
		c6.3-0.5,12.8,1.1,18.2,4.5c1.3,0.9,2.6,1.8,3.8,2.9c0.6,0.5,1.2,1.1,1.7,1.6c0.3,0.3,0.5,0.6,0.8,0.9l0.8,1l0.4,0.5
		c0.1,0.2,0.2,0.3,0.3,0.4l0.5,0.7l0.1,0.2c0,0,0.4,0.5,0.3,0.4l0.3,0.5c0.2,0.4,0.5,0.7,0.7,1.1c0.8,1.5,1.5,3,2,4.5
		c1.1,3,1.6,5.9,1.9,8.8c0.3,2.8,0.3,5.6,0.1,8.3c-0.8,10.7-3.6,20.3-7,29.5c-0.9,2.3-1.8,4.6-2.7,6.8c-0.5,1.1-1,2.2-1.5,3.4
		l-0.8,1.7l-0.7,1.6l-0.4,0.8l-0.5,1c-0.3,0.6-0.6,1.2-1,1.8c-0.7,1.2-1.3,2.3-2,3.5c-1.4,2.2-2.9,4.3-4.4,6.4
		c-3.1,4-6.2,7.9-9.6,11.5c-3.3,3.6-6.7,7.2-10.3,10.5c-7.1,6.7-14.5,13.1-22.9,18.7c-2.1,1.4-4.3,2.8-6.7,4.1
		c-1.2,0.6-2.4,1.3-3.8,1.9c-1.4,0.6-2.8,1.2-4.6,1.7c-0.9,0.3-1.9,0.5-3.1,0.7c-1.2,0.2-2.7,0.3-4.9,0c-1.1-0.2-2.4-0.5-3.9-1.2
		c-0.3-0.1-1-0.5-1.4-0.8l-0.5-0.4c-0.9-0.7-0.4-0.3-0.6-0.5l-0.2-0.1l-1.4-1.2c-1.9-1.6-3.7-3.1-5.5-4.7
		c-7.2-6.3-14.1-12.7-21-19.2c-13.7-12.9-27.2-26-40.5-39.2c-13.3-13.2-26.5-26.6-39.6-40c-13.1-13.5-26-27.1-38.7-41.1
		c-3.2-3.5-6.3-7-9.4-10.7l-2.3-2.8l-2.3-2.8c-0.4-0.4-0.8-1-1.2-1.6l-1.3-1.6c-0.2-0.3-0.4-0.5-0.6-0.8l-0.5-0.7l-0.5-0.7l-0.1-0.2
		c0.2,0.3-1-1.4-1.1-2c-0.4-0.9-0.7-2.1-0.7-3.3c-0.1-1.2,0.2-2.4,0.5-3.4c0.7-2,1.6-3,2.2-3.7c0.6-0.7,1.2-1.1,1.6-1.4
		c0.9-0.6,1.5-1,2.1-1.2c1.1-0.5,1.9-0.8,2.7-1.1c1.5-0.5,2.9-0.8,4.2-1.1c2.6-0.6,5-1,7.4-1.4c4.8-0.8,9.5-1.4,14.3-2
		c18.8-2.2,37.5-3.9,56.2-5.4l56-4.5c18.6-1.4,37.3-2.9,55.8-4.6c9.3-0.8,18.6-1.8,27.8-2.8c9.2-1,18.4-2.1,27.4-3.7l0,0
		c3.2-0.6,6.2,1.5,6.8,4.7C389.8,272.9,387.8,275.9,384.8,276.5z"/>
</g>
<path id="XMLID_19_" class="st1" d="M595,225.1c-6.5,14.9,17.3,133.2,46.4,150.1c11.9,6.9,25.8-1.4,22.5-26.9
	c7.7,18,22,22.1,33.7,19.4c5.9-1.4,25.6-14.8,11.2-49.4s-36.7-37.2-45.6-31.9c-8.8,5.3-21.1,14.9,0.6,61.9"/>
<path id="XMLID_16_" class="st1" d="M699.6,258.5c-3.5,16.4,20.4,95.9,31.9,104.7c20,15.2,92.2-30.9,130.4-16.2"/>
<g id="XMLID_15_">
	<g id="XMLID_50_">
		<path id="XMLID_57_" class="st0" d="M382.8,491.2c-0.9,0.9-1.2,0.9,0.3-0.2c0.8-0.5,1.6-1.1,2.4-1.6c2.1-1.3,4.2-2.5,6.3-3.6
			c1.3-0.7,2.6-1.3,3.8-2c0.7-0.4,1.5-0.7,2.3-1.1c1.3-0.6,1.9-0.9,1.3-0.6c3.5-1.6,7.1-3.2,10.6-4.7c19.6-8.4,39.7-15.5,59.9-22.1
			c52.4-17,106.6-30.3,161.5-36c29-3,58.3-3.9,87.1,0.7c4.3,0.7,9.8-1.7,9.8-6.6c0.1-5.1-5.2-8.6-9.7-9.3
			c-55.7-8.9-113.8-0.1-168.3,11.7c-49.4,10.7-98.5,25.2-145.2,44.5c-8.5,3.5-17,7.3-25.2,11.5c-4.9,2.5-9.7,5.2-13.7,9
			c-3.7,3.5,0,9.3,3.3,11.4C373.7,494.8,379.1,494.7,382.8,491.2L382.8,491.2z"/>
	</g>
</g>
</svg>
